<svg aria-roledescription="er" viewBox="0 0 479.337158203125 298" style="max-width: 479.337px; background-color: white;" xmlns:xlink="http://www.w3.org/1999/xlink" xmlns="http://www.w3.org/2000/svg" width="100%" id="mermaid-0"><style>#mermaid-0{font-family:"trebuchet ms",verdana,arial,sans-serif;font-size:16px;fill:#000000;}#mermaid-0 .error-icon{fill:#552222;}#mermaid-0 .error-text{fill:#552222;stroke:#552222;}#mermaid-0 .edge-thickness-normal{stroke-width:2px;}#mermaid-0 .edge-thickness-thick{stroke-width:3.5px;}#mermaid-0 .edge-pattern-solid{stroke-dasharray:0;}#mermaid-0 .edge-pattern-dashed{stroke-dasharray:3;}#mermaid-0 .edge-pattern-dotted{stroke-dasharray:2;}#mermaid-0 .marker{fill:#000000;stroke:#000000;}#mermaid-0 .marker.cross{stroke:#000000;}#mermaid-0 svg{font-family:"trebuchet ms",verdana,arial,sans-serif;font-size:16px;}#mermaid-0 .entityBox{fill:#cde498;stroke:#13540c;}#mermaid-0 .attributeBoxOdd{fill:#ffffff;stroke:#13540c;}#mermaid-0 .attributeBoxEven{fill:#f2f2f2;stroke:#13540c;}#mermaid-0 .relationshipLabelBox{fill:hsl(78.1578947368, 58.4615384615%, 84.5098039216%);opacity:0.7;background-color:hsl(78.1578947368, 58.4615384615%, 84.5098039216%);}#mermaid-0 .relationshipLabelBox rect{opacity:0.5;}#mermaid-0 .relationshipLine{stroke:#000000;}#mermaid-0 .entityTitleText{text-anchor:middle;font-size:18px;fill:#000000;}#mermaid-0 :root{--mermaid-font-family:"trebuchet ms",verdana,arial,sans-serif;}</style><g/><defs><marker orient="auto" markerHeight="18" markerWidth="18" refY="9" refX="0" id="ONLY_ONE_START"><path d="M9,0 L9,18 M15,0 L15,18" fill="none" stroke="gray"/></marker></defs><defs><marker orient="auto" markerHeight="18" markerWidth="18" refY="9" refX="18" id="ONLY_ONE_END"><path d="M3,0 L3,18 M9,0 L9,18" fill="none" stroke="gray"/></marker></defs><defs><marker orient="auto" markerHeight="18" markerWidth="30" refY="9" refX="0" id="ZERO_OR_ONE_START"><circle r="6" cy="9" cx="21" fill="white" stroke="gray"/><path d="M9,0 L9,18" fill="none" stroke="gray"/></marker></defs><defs><marker orient="auto" markerHeight="18" markerWidth="30" refY="9" refX="30" id="ZERO_OR_ONE_END"><circle r="6" cy="9" cx="9" fill="white" stroke="gray"/><path d="M21,0 L21,18" fill="none" stroke="gray"/></marker></defs><defs><marker orient="auto" markerHeight="36" markerWidth="45" refY="18" refX="18" id="ONE_OR_MORE_START"><path d="M0,18 Q 18,0 36,18 Q 18,36 0,18 M42,9 L42,27" fill="none" stroke="gray"/></marker></defs><defs><marker orient="auto" markerHeight="36" markerWidth="45" refY="18" refX="27" id="ONE_OR_MORE_END"><path d="M3,9 L3,27 M9,18 Q27,0 45,18 Q27,36 9,18" fill="none" stroke="gray"/></marker></defs><defs><marker orient="auto" markerHeight="36" markerWidth="57" refY="18" refX="18" id="ZERO_OR_MORE_START"><circle r="6" cy="18" cx="48" fill="white" stroke="gray"/><path d="M0,18 Q18,0 36,18 Q18,36 0,18" fill="none" stroke="gray"/></marker></defs><defs><marker orient="auto" markerHeight="36" markerWidth="57" refY="18" refX="39" id="ZERO_OR_MORE_END"><circle r="6" cy="18" cx="9" fill="white" stroke="gray"/><path d="M21,18 Q39,0 57,18 Q39,36 21,18" fill="none" stroke="gray"/></marker></defs><path style="stroke: gray; fill: none;" marker-start="url(#ZERO_OR_MORE_START)" marker-end="url(#ONLY_ONE_END)" d="M110.24404834565662,77L104.19246104406932,87.16666666666667C98.14087374248201,97.33333333333333,86.0376991393074,117.66666666666667,79.98611183772012,138C73.93452453613281,158.33333333333334,73.93452453613281,178.66666666666666,73.93452453613281,188.83333333333334L73.93452453613281,199" class="er relationshipLine"/><path style="stroke: gray; fill: none;" marker-start="url(#ZERO_OR_MORE_START)" marker-end="url(#ONLY_ONE_END)" d="M154.43602016993933,77L167.9185653414045,87.16666666666667C181.40111051286968,97.33333333333333,208.3662008558001,117.66666666666667,231.32260156454598,136.16666666666666C254.27900227329187,154.66666666666666,273.22671334785326,171.33333333333334,282.700568885134,179.66666666666666L292.1744244224147,188" class="er relationshipLine"/><path style="stroke: gray; fill: none;" marker-start="url(#ZERO_OR_MORE_START)" marker-end="url(#ONLY_ONE_END)" d="M393.33324432373047,88L393.33324432373047,96.33333333333333C393.33324432373047,104.66666666666667,393.33324432373047,121.33333333333333,388.94727941144976,138C384.5613144991691,154.66666666666666,375.7893846746077,171.33333333333334,371.4034197623269,179.66666666666666L367.01745485004625,188" class="er relationshipLine"/><g transform="translate(274.47423553466797,188 )" id="entity-habits-6fea10b2-9f3b-440d-ab13-2203e10ab851"><rect height="90" width="137.718017578125" y="0" x="0" class="er entityBox"/><text style="dominant-baseline: middle; text-anchor: middle; font-size: 12px;" transform="translate(68.8590087890625,12)" y="0" x="0" id="text-entity-habits-6fea10b2-9f3b-440d-ab13-2203e10ab851" class="er entityLabel">habits</text><rect height="22" width="54.095550537109375" y="24" x="0" class="er attributeBoxOdd"/><text style="dominant-baseline: middle; font-size: 10.2px;" transform="translate(5,35)" y="0" x="0" id="text-entity-habits-6fea10b2-9f3b-440d-ab13-2203e10ab851-attr-1-type" class="er entityLabel">String</text><rect height="22" width="60.934783935546875" y="24" x="54.095550537109375" class="er attributeBoxOdd"/><text style="dominant-baseline: middle; font-size: 10.2px;" transform="translate(59.095550537109375,35)" y="0" x="0" id="text-entity-habits-6fea10b2-9f3b-440d-ab13-2203e10ab851-attr-1-name" class="er entityLabel">id</text><rect height="22" width="22.68768310546875" y="24" x="115.03033447265625" class="er attributeBoxOdd"/><text style="dominant-baseline: middle; font-size: 10.2px;" transform="translate(120.03033447265625,35)" y="0" x="0" id="text-entity-habits-6fea10b2-9f3b-440d-ab13-2203e10ab851-attr-1-key" class="er entityLabel">PK</text><rect height="22" width="54.095550537109375" y="46" x="0" class="er attributeBoxEven"/><text style="dominant-baseline: middle; font-size: 10.2px;" transform="translate(5,57)" y="0" x="0" id="text-entity-habits-6fea10b2-9f3b-440d-ab13-2203e10ab851-attr-2-type" class="er entityLabel">String</text><rect height="22" width="60.934783935546875" y="46" x="54.095550537109375" class="er attributeBoxEven"/><text style="dominant-baseline: middle; font-size: 10.2px;" transform="translate(59.095550537109375,57)" y="0" x="0" id="text-entity-habits-6fea10b2-9f3b-440d-ab13-2203e10ab851-attr-2-name" class="er entityLabel">title</text><rect height="22" width="22.68768310546875" y="46" x="115.03033447265625" class="er attributeBoxEven"/><text style="dominant-baseline: middle; font-size: 10.2px;" transform="translate(120.03033447265625,57)" y="0" x="0" id="text-entity-habits-6fea10b2-9f3b-440d-ab13-2203e10ab851-attr-2-key" class="er entityLabel"/><rect height="22" width="54.095550537109375" y="68" x="0" class="er attributeBoxOdd"/><text style="dominant-baseline: middle; font-size: 10.2px;" transform="translate(5,79)" y="0" x="0" id="text-entity-habits-6fea10b2-9f3b-440d-ab13-2203e10ab851-attr-3-type" class="er entityLabel">DateTime</text><rect height="22" width="60.934783935546875" y="68" x="54.095550537109375" class="er attributeBoxOdd"/><text style="dominant-baseline: middle; font-size: 10.2px;" transform="translate(59.095550537109375,79)" y="0" x="0" id="text-entity-habits-6fea10b2-9f3b-440d-ab13-2203e10ab851-attr-3-name" class="er entityLabel">created_at</text><rect height="22" width="22.68768310546875" y="68" x="115.03033447265625" class="er attributeBoxOdd"/><text style="dominant-baseline: middle; font-size: 10.2px;" transform="translate(120.03033447265625,79)" y="0" x="0" id="text-entity-habits-6fea10b2-9f3b-440d-ab13-2203e10ab851-attr-3-key" class="er entityLabel"/></g><g transform="translate(20,199 )" id="entity-days-4be3052d-b5eb-4774-84d0-9f4a6c2650d9"><rect height="68" width="107.86904907226562" y="0" x="0" class="er entityBox"/><text style="dominant-baseline: middle; text-anchor: middle; font-size: 12px;" transform="translate(53.93452453613281,12)" y="0" x="0" id="text-entity-days-4be3052d-b5eb-4774-84d0-9f4a6c2650d9" class="er entityLabel">days</text><rect height="22" width="54.095550537109375" y="24" x="0" class="er attributeBoxOdd"/><text style="dominant-baseline: middle; font-size: 10.2px;" transform="translate(5,35)" y="0" x="0" id="text-entity-days-4be3052d-b5eb-4774-84d0-9f4a6c2650d9-attr-1-type" class="er entityLabel">String</text><rect height="22" width="31.0858154296875" y="24" x="54.095550537109375" class="er attributeBoxOdd"/><text style="dominant-baseline: middle; font-size: 10.2px;" transform="translate(59.095550537109375,35)" y="0" x="0" id="text-entity-days-4be3052d-b5eb-4774-84d0-9f4a6c2650d9-attr-1-name" class="er entityLabel">id</text><rect height="22" width="22.68768310546875" y="24" x="85.18136596679688" class="er attributeBoxOdd"/><text style="dominant-baseline: middle; font-size: 10.2px;" transform="translate(90.18136596679688,35)" y="0" x="0" id="text-entity-days-4be3052d-b5eb-4774-84d0-9f4a6c2650d9-attr-1-key" class="er entityLabel">PK</text><rect height="22" width="54.095550537109375" y="46" x="0" class="er attributeBoxEven"/><text style="dominant-baseline: middle; font-size: 10.2px;" transform="translate(5,57)" y="0" x="0" id="text-entity-days-4be3052d-b5eb-4774-84d0-9f4a6c2650d9-attr-2-type" class="er entityLabel">DateTime</text><rect height="22" width="31.0858154296875" y="46" x="54.095550537109375" class="er attributeBoxEven"/><text style="dominant-baseline: middle; font-size: 10.2px;" transform="translate(59.095550537109375,57)" y="0" x="0" id="text-entity-days-4be3052d-b5eb-4774-84d0-9f4a6c2650d9-attr-2-name" class="er entityLabel">date</text><rect height="22" width="22.68768310546875" y="46" x="85.18136596679688" class="er attributeBoxEven"/><text style="dominant-baseline: middle; font-size: 10.2px;" transform="translate(90.18136596679688,57)" y="0" x="0" id="text-entity-days-4be3052d-b5eb-4774-84d0-9f4a6c2650d9-attr-2-key" class="er entityLabel"/></g><g transform="translate(73.93452453613281,31 )" id="entity-dayshabits-634363a2-8a73-43b5-b079-6eb7006ee7e8"><rect height="46" width="100" y="0" x="0" class="er entityBox"/><text style="dominant-baseline: middle; text-anchor: middle; font-size: 12px;" transform="translate(50,12)" y="0" x="0" id="text-entity-dayshabits-634363a2-8a73-43b5-b079-6eb7006ee7e8" class="er entityLabel">days_habits</text><rect height="22" width="44.39861551920573" y="24" x="0" class="er attributeBoxOdd"/><text style="dominant-baseline: middle; font-size: 10.2px;" transform="translate(5,35)" y="0" x="0" id="text-entity-dayshabits-634363a2-8a73-43b5-b079-6eb7006ee7e8-attr-1-type" class="er entityLabel">String</text><rect height="22" width="25.911142985026043" y="24" x="44.39861551920573" class="er attributeBoxOdd"/><text style="dominant-baseline: middle; font-size: 10.2px;" transform="translate(49.39861551920573,35)" y="0" x="0" id="text-entity-dayshabits-634363a2-8a73-43b5-b079-6eb7006ee7e8-attr-1-name" class="er entityLabel">id</text><rect height="22" width="29.69024149576823" y="24" x="70.30975850423177" class="er attributeBoxOdd"/><text style="dominant-baseline: middle; font-size: 10.2px;" transform="translate(75.30975850423177,35)" y="0" x="0" id="text-entity-dayshabits-634363a2-8a73-43b5-b079-6eb7006ee7e8-attr-1-key" class="er entityLabel">PK</text></g><g transform="translate(327.32933807373047,20 )" id="entity-habitsweeksdays-10b7f9b5-0775-49c5-a37f-3fae9a8c5cfe"><rect height="68" width="132.0078125" y="0" x="0" class="er entityBox"/><text style="dominant-baseline: middle; text-anchor: middle; font-size: 12px;" transform="translate(66.00390625,12)" y="0" x="0" id="text-entity-habitsweeksdays-10b7f9b5-0775-49c5-a37f-3fae9a8c5cfe" class="er entityLabel">habits_weeks_days</text><rect height="22" width="42.2867177327474" y="24" x="0" class="er attributeBoxOdd"/><text style="dominant-baseline: middle; font-size: 10.2px;" transform="translate(5,35)" y="0" x="0" id="text-entity-habitsweeksdays-10b7f9b5-0775-49c5-a37f-3fae9a8c5cfe-attr-1-type" class="er entityLabel">String</text><rect height="22" width="62.14275105794271" y="24" x="42.2867177327474" class="er attributeBoxOdd"/><text style="dominant-baseline: middle; font-size: 10.2px;" transform="translate(47.2867177327474,35)" y="0" x="0" id="text-entity-habitsweeksdays-10b7f9b5-0775-49c5-a37f-3fae9a8c5cfe-attr-1-name" class="er entityLabel">id</text><rect height="22" width="27.578343709309895" y="24" x="104.42946879069011" class="er attributeBoxOdd"/><text style="dominant-baseline: middle; font-size: 10.2px;" transform="translate(109.42946879069011,35)" y="0" x="0" id="text-entity-habitsweeksdays-10b7f9b5-0775-49c5-a37f-3fae9a8c5cfe-attr-1-key" class="er entityLabel">PK</text><rect height="22" width="42.2867177327474" y="46" x="0" class="er attributeBoxEven"/><text style="dominant-baseline: middle; font-size: 10.2px;" transform="translate(5,57)" y="0" x="0" id="text-entity-habitsweeksdays-10b7f9b5-0775-49c5-a37f-3fae9a8c5cfe-attr-2-type" class="er entityLabel">Int</text><rect height="22" width="62.14275105794271" y="46" x="42.2867177327474" class="er attributeBoxEven"/><text style="dominant-baseline: middle; font-size: 10.2px;" transform="translate(47.2867177327474,57)" y="0" x="0" id="text-entity-habitsweeksdays-10b7f9b5-0775-49c5-a37f-3fae9a8c5cfe-attr-2-name" class="er entityLabel">week_day</text><rect height="22" width="27.578343709309895" y="46" x="104.42946879069011" class="er attributeBoxEven"/><text style="dominant-baseline: middle; font-size: 10.2px;" transform="translate(109.42946879069011,57)" y="0" x="0" id="text-entity-habitsweeksdays-10b7f9b5-0775-49c5-a37f-3fae9a8c5cfe-attr-2-key" class="er entityLabel"/></g><rect height="14" width="19.990234375" y="127.78831481933594" x="70.99609375" class="er relationshipLabelBox"/><text style="text-anchor: middle; dominant-baseline: middle; font-size: 12px;" y="134.78831481933594" x="80.9912109375" id="rel1" class="er relationshipLabel">day</text><rect height="14" width="27.96875" y="123.8306884765625" x="210.67153930664062" class="er relationshipLabelBox"/><text style="text-anchor: middle; dominant-baseline: middle; font-size: 12px;" y="130.8306884765625" x="224.65591430664062" id="rel2" class="er relationshipLabel">habit</text><rect height="14" width="27.96875" y="133.108642578125" x="374.3848876953125" class="er relationshipLabelBox"/><text style="text-anchor: middle; dominant-baseline: middle; font-size: 12px;" y="140.108642578125" x="388.3692626953125" id="rel3" class="er relationshipLabel">habit</text></svg>